<svg xmlns="http://www.w3.org/2000/svg" xmlns:xlink="http://www.w3.org/1999/xlink" width="1920" height="539.562" viewBox="0 0 1920 539.562">
  <defs>
    <linearGradient id="a" x1="1151.045" y1="1632.872" x2="1094.996" y2="1628.012" gradientTransform="translate(345.388 -1655.008) rotate(13.137)" gradientUnits="userSpaceOnUse">
      <stop offset="0.006" stop-color="#ae0000"/>
      <stop offset="0.226" stop-color="#c6000d"/>
      <stop offset="0.515" stop-color="#de001b"/>
      <stop offset="0.781" stop-color="#ed0023"/>
      <stop offset="1" stop-color="#f20026"/>
    </linearGradient>
    <linearGradient id="b" x1="1117.515" y1="1722.712" x2="1117.515" y2="1699.411" gradientTransform="translate(345.388 -1655.008) rotate(13.137)" gradientUnits="userSpaceOnUse">
      <stop offset="0" stop-color="#db001c"/>
      <stop offset="0.669" stop-color="#ff0019"/>
    </linearGradient>
    <linearGradient id="c" x1="1139.815" y1="1621.002" x2="1018.448" y2="1674.267" gradientTransform="translate(345.388 -1655.008) rotate(13.137)" gradientUnits="userSpaceOnUse">
      <stop offset="0.107" stop-color="#c50000"/>
      <stop offset="1" stop-color="#7e0000"/>
    </linearGradient>
    <linearGradient id="d" x1="1136.913" y1="1693.036" x2="1140.081" y2="1726.042" gradientTransform="translate(350.725 -1661.594) rotate(13.59)" gradientUnits="userSpaceOnUse">
      <stop offset="0.006" stop-color="#ff0004"/>
      <stop offset="0.406" stop-color="#e0000e"/>
      <stop offset="0.761" stop-color="#cc0014"/>
      <stop offset="1" stop-color="#c50016"/>
    </linearGradient>
    <linearGradient id="e" x1="1112.232" y1="1720.156" x2="1088.185" y2="1708.359" gradientTransform="translate(345.388 -1655.008) rotate(13.137)" gradientUnits="userSpaceOnUse">
      <stop offset="0" stop-color="#d2001a"/>
      <stop offset="0.775" stop-color="#b60000"/>
    </linearGradient>
    <linearGradient id="f" x1="1078.999" y1="1552.669" x2="1030.198" y2="1688.276" gradientTransform="matrix(0.973, 0.23, -0.23, 0.973, 347.684, -1657.809)" gradientUnits="userSpaceOnUse">
      <stop offset="0.219" stop-color="#fa0029"/>
      <stop offset="0.5" stop-color="#f80026"/>
      <stop offset="0.711" stop-color="#f2001c"/>
      <stop offset="0.898" stop-color="#e9000c"/>
      <stop offset="1" stop-color="#e10000"/>
    </linearGradient>
    <linearGradient id="g" x1="1041.367" y1="1690.931" x2="1035.436" y2="1745.961" gradientTransform="translate(345.388 -1655.008) rotate(13.137)" gradientUnits="userSpaceOnUse">
      <stop offset="0.006" stop-color="#ff001c"/>
      <stop offset="0.264" stop-color="#ff0829"/>
      <stop offset="0.341" stop-color="#f60628"/>
      <stop offset="0.523" stop-color="#e60327"/>
      <stop offset="0.727" stop-color="#dc0126"/>
      <stop offset="1" stop-color="#d90026"/>
    </linearGradient>
    <linearGradient id="h" x1="1053.802" y1="1553.731" x2="1044.998" y2="1650.195" gradientTransform="translate(350.725 -1661.594) rotate(13.59)" gradientUnits="userSpaceOnUse">
      <stop offset="0.006" stop-color="#fe3d47"/>
      <stop offset="0.377" stop-color="#fb3240"/>
      <stop offset="1" stop-color="#f51630"/>
    </linearGradient>
    <radialGradient id="i" cx="1034.133" cy="1562.252" r="5.425" gradientTransform="matrix(0.914, 0.216, -0.23, 0.973, 397.768, -1645.974)" gradientUnits="userSpaceOnUse">
      <stop offset="0.213"/>
      <stop offset="0.325" stop-color="#030303"/>
      <stop offset="0.405" stop-color="#0c0c0c"/>
      <stop offset="0.475" stop-color="#1c1c1c"/>
      <stop offset="0.539" stop-color="#323232"/>
      <stop offset="0.6" stop-color="#4f4f4f"/>
      <stop offset="0.658" stop-color="#727272"/>
      <stop offset="0.713" stop-color="#9c9c9c"/>
      <stop offset="0.765" stop-color="#ccc"/>
      <stop offset="0.814" stop-color="#fff"/>
      <stop offset="0.833" stop-color="#f5f5f5"/>
      <stop offset="0.866" stop-color="#d9d9d9"/>
      <stop offset="0.908" stop-color="#acacac"/>
      <stop offset="0.958" stop-color="#6f6f6f"/>
      <stop offset="1" stop-color="#363636"/>
    </radialGradient>
    <radialGradient id="j" cx="1089.052" cy="1559.679" r="5.727" xlink:href="#i"/>
    <linearGradient id="k" x1="1003.434" y1="1494.926" x2="1040.383" y2="1494.926" gradientTransform="matrix(0.96, 0.281, -0.281, 0.96, 422.423, -1518.28)" gradientUnits="userSpaceOnUse">
      <stop offset="0" stop-color="#960b0b"/>
      <stop offset="1"/>
    </linearGradient>
  </defs>
  <g>
    <path d="M25.175,27.817c15.378.982,40.571,2.291,65.44,2.291,5.562,0,10.8-.328,16.36-.328,30.757-.654,75.583-1.963,101.1-1.963,159.673,0,236.566,82.455,236.566,231.984,0,145.932-88.344,242.456-242.456,242.456-20.286,0-65.112-1.963-93.906-1.963-31.41,0-64.459.655-83.108,1.963V488.841c45.48-1.963,54.315-8.833,54.315-57.587V98.82c0-48.753-8.835-55.624-54.315-57.588ZM141.658,432.562c0,46.791,8.835,57.589,50.388,57.589,145.93,0,185.522-81.8,185.522-227.732,0-150.185-47.443-222.5-186.177-222.5-40.9,0-49.733,11.453-49.733,57.588Z"/>
    <path d="M918.113,468.882c-18.978,27.486-35.665,42.863-71.658,42.863-33.7,0-59.223-15.377-71.984-72.637l-14.723-66.749c-12.761-56.933-22.578-95.215-75.583-95.215h-63.8v154.11c0,48.754,8.835,55.624,54.313,57.587v13.416c-20.612-1.308-54.313-1.963-85.07-1.963-34.683,0-67.077.655-85.726,1.963V488.841c45.481-1.963,54.316-8.833,54.316-57.587V98.82c0-48.753-8.835-55.624-54.316-57.588V27.817c18.649,1.309,52.35,1.963,81.8,1.963,42.208,0,85.071-1.309,101.105-1.309,107.974,0,161.635,51.043,161.635,116.484,0,46.462-29.121,113.211-130.225,128.916l8.18,1.309c59.551,9.816,81.145,32.72,93.906,88.344l16.688,68.385c8.18,38.938,15.705,54.969,34.355,54.969,16.36,0,24.213-9.816,36.648-25.521Zm-252.6-205.154c94.89,0,115.831-49.734,115.831-111.247,0-70.349-30.1-111.249-111.25-111.249-40.9,0-49.733,11.452-49.733,57.588V263.728Z"/>
    <path d="M1040.494,466.524c0,21.44,14.071,27.646,51.043,27.646v8.087c-15.377-.377-50.388-1.5-81.146-1.5s-65.766,1.128-81.145,1.5V494.17c36.975,0,51.043-6.206,51.043-27.646V345.973c0-23.133-12.105-34.04-51.043-34.04v-8.087c14.071.752,28.14,1.128,41.555,1.128,26.177,0,50.388-1.5,69.693-5.266Z"/>
    <path d="M1250.888,431.254c0,48.754,11.45,55.624,67.729,57.587v13.416c-23.23-1.308-62.167-1.963-98.487-1.963-34.683,0-67.076.655-85.726,1.963V488.841c45.481-1.963,54.316-8.833,54.316-57.587V98.82c0-48.753-8.835-55.624-54.316-57.588V27.817c18.65,1.309,52.351,1.963,81.8,1.963,42.208,0,85.071-1.309,101.1-1.309,107.975,0,161.636,54.316,161.636,132.19,0,64.785-37.628,149.857-176.359,149.857h-51.7ZM1296.04,297.1c94.89,0,115.83-60.858,115.83-129.244,0-84.417-30.1-126.626-111.249-126.626-40.9,0-49.733,11.452-49.733,57.588V297.1Z"/>
    <path d="M1520.507,168.513c1.31-14.069,1.965-33.374,1.965-54.97,0-16.687-1.31-51.7-4.909-85.726,55.623,1.963,134.153,1.963,189.122,1.963s132.514,0,188.14-1.963c-3.272,34.03-4.58,69.039-4.58,85.726,0,21.6.652,40.9,1.963,54.97h-15.379c-9.49-93.252-19.3-125.317-103.067-125.317h-36.32V424.382c0,54.316,11.451,62.5,67.729,64.459v13.416c-23.558-1.308-62.167-1.963-98.486-1.963-40.245,0-77.875.655-99.142,1.963V488.841c56.279-1.963,67.729-10.143,67.729-64.459V43.2h-36.317c-83.763,0-93.908,32.065-103.069,125.317Z"/>
  </g>
  <g>
    <g>
      <g>
        <path d="M1013.8,95.746c9.781-44.661,26.084-57.7,37.073-55.294,5.539,1.212,10.032,4.513,13.353,9.81,7.223,11.52,8.328,31.777,2.955,54.187l2.24.537c5.514-23,4.3-43.914-3.244-55.948-3.662-5.841-8.646-9.487-14.812-10.836-12.6-2.759-29.681,10.78-39.815,57.051Z" fill="#a3a3a3"/>
        <path d="M1069.423,104.986c5.514-23,4.3-43.914-3.244-55.948-3.662-5.841-8.646-9.487-14.812-10.836l-.035-.007c5.944,1.431,10.767,5.031,14.333,10.719,7.545,12.033,8.758,32.949,3.243,55.947Zm-56.135-9.364.514.124c9.771-44.612,26.048-57.67,37.037-55.3-.16-.039-.317-.082-.478-.117C1039.371,37.923,1023.069,50.961,1013.288,95.622Z" fill="#474747"/>
        <path d="M1064.49,50.692c-.022-.035-.045-.068-.067-.1,7.044,11.574,8.083,31.657,2.76,53.86l.343.082C1072.8,82.26,1071.676,62.152,1064.49,50.692Zm1.689-1.654c-3.662-5.841-8.646-9.487-14.812-10.836-12.6-2.759-29.681,10.78-39.815,57.051l.342.075c10.143-45.983,27.165-59.448,39.735-56.7,6.131,1.342,11.092,4.955,14.748,10.738C1066.31,49.26,1066.247,49.146,1066.179,49.038Z" fill="#e2e4db"/>
      </g>
      <g>
        <path d="M1068.742,252.005c2.287-14.772,22.637-139.011,22.637-139.011l-14.831-4.246-31.608,145.4,22.835,16.252Z" fill="url(#a)"/>
        <polygon points="1016.921 281.069 1016.921 281.069 1067.775 270.399 1045.051 254.136 1016.921 281.069" fill="url(#b)"/>
        <polygon points="1076.579 108.754 1064.694 101.541 1064.595 101.535 1026.336 254.597 1016.921 281.069 1045.051 254.136 1076.579 108.754" fill="url(#c)"/>
        <polygon points="1068.742 252.005 1045.051 254.136 1067.775 270.399 1068.742 252.005" fill="url(#d)"/>
        <polygon points="1026.336 254.597 1016.921 281.069 1045.051 254.136 1026.336 254.597" fill="url(#e)"/>
        <path d="M943.356,135.136c7.1-25.442,14.541-51.31,14.541-51.31l106.8,17.718L1026.336,254.6l-9.415,26.472-102.6-51.013a16.63,16.63,0,0,0,2.566-5.3c1.174-3.652,5.25-14.275,5.418-14.928C922.4,209.471,934.514,166.821,943.356,135.136Z" fill="url(#f)"/>
        <path d="M916.884,224.761a16.63,16.63,0,0,1-2.566,5.3l102.6,51.013,9.415-26.472L922.222,210.082C921.618,211.834,917.982,221.345,916.884,224.761Z" fill="url(#g)"/>
        <path d="M979.244,146.152c29.211-19.682,58.623-34.782,85.294-44.617L957.777,83.822s-7.44,25.868-14.541,51.311c-4.851,17.383-10.156,36.37-13.973,50.029A442.06,442.06,0,0,1,979.244,146.152Z" fill="url(#h)"/>
      </g>
      <g>
        <g>
          <path d="M986.431,99.078c-.585,2.282-2.6,3.733-4.506,3.239s-2.973-2.743-2.389-5.026,2.6-3.732,4.505-3.239S987.015,96.8,986.431,99.078Z" fill="#320000"/>
          <path d="M984.646,93.151a5.02,5.02,0,0,0-5.963,4c-.874,3.5,1.065,5.847,3.536,6.292a5.141,5.141,0,0,0,5.869-3.946C988.813,96.662,987.188,93.692,984.646,93.151Zm-2.408,8.618c-1.652-.428-2.5-2.318-1.992-4.3s2.224-3.231,3.656-2.872c1.656.414,2.581,2.382,2.074,4.363S983.891,102.2,982.238,101.769Z" fill="url(#i)"/>
        </g>
        <g>
          <path d="M1037.394,108.512c-.619,2.409-2.748,3.942-4.758,3.419s-3.139-2.9-2.523-5.306,2.748-3.94,4.758-3.42S1038.01,106.1,1037.394,108.512Z" fill="#320000"/>
          <path d="M1035.509,102.254a5.3,5.3,0,0,0-6.3,4.219c-.922,3.694,1.125,6.174,3.732,6.643a5.426,5.426,0,0,0,6.2-4.167C1039.908,105.961,1038.194,102.825,1035.509,102.254Zm-2.542,9.1c-1.744-.452-2.638-2.447-2.1-4.54s2.348-3.411,3.86-3.032c1.748.438,2.725,2.515,2.189,4.606S1034.713,111.806,1032.967,111.353Z" fill="url(#j)"/>
        </g>
        <g>
          <path d="M1036.967,106.32a4.925,4.925,0,0,0-.37-1.029,1.792,1.792,0,0,1-.284-.142c-.2-.127-.512-.319-.183-1.124l.282-.687c4.837-11.811,19.557-47.754,11.669-62.817a12.413,12.413,0,0,0-8.693-6.592c-4.069-.9-14.86-1.911-27.151,8.065-12.318,10-22.208,27.733-29.395,52.709a2.734,2.734,0,0,0,.508,2.481,3.289,3.289,0,0,0,2.746,1.292,5.837,5.837,0,0,0-.04-1.265,3.8,3.8,0,0,0-.356-1.121c-.634-.158-.672-.651-.644-.75,14.188-49.308,37.868-62.687,53.836-59.162a10.074,10.074,0,0,1,7.148,5.412c7.39,14.113-7.023,49.31-11.76,60.876l-.282.688a3,3,0,0,0,1.1,3.95,4.626,4.626,0,0,0,1.928.639A3.506,3.506,0,0,0,1036.967,106.32Z" fill="#a3a3a3"/>
          <path d="M984.567,95.294c-.029.1.01.592.643.75l.49.046c-.634-.158-.672-.651-.644-.75,13.3-46.206,34.927-60.861,50.735-59.621C1019.942,34.134,998,48.607,984.567,95.294Zm52.03,10a1.792,1.792,0,0,1-.284-.142c-.2-.127-.512-.319-.183-1.124l.282-.687c4.837-11.811,19.557-47.754,11.669-62.817a12.413,12.413,0,0,0-8.693-6.592,22.964,22.964,0,0,0-3.017-.449,22.825,22.825,0,0,1,2.528.4,12.41,12.41,0,0,1,8.692,6.593c7.888,15.062-6.832,51.006-11.669,62.817l-.282.687c-.328.805-.02,1,.183,1.123A6.119,6.119,0,0,0,1036.6,105.291Z" fill="#474747"/>
          <path d="M1039.388,33.929c-4.069-.9-14.86-1.911-27.151,8.065-12.318,10-22.208,27.733-29.395,52.709a2.731,2.731,0,0,0,.485,2.449,2.7,2.7,0,0,1-.147-1.9c7.187-24.976,17.077-42.71,29.4-52.708,12.291-9.977,23.082-8.965,27.152-8.066a12.361,12.361,0,0,1,8.058,5.509A12.373,12.373,0,0,0,1039.388,33.929Zm-5.052,69.778.282-.688c4.737-11.566,19.151-46.763,11.76-60.876-.183-.349-.378-.68-.584-1,.083.146.166.293.246.444,7.39,14.113-7.023,49.31-11.76,60.876l-.282.688a3.124,3.124,0,0,0,.28,3.23A3.318,3.318,0,0,1,1034.336,103.707Z" fill="#e2e4db"/>
        </g>
      </g>
    </g>
    <g>
      <path d="M977.547,212.513a10.7,10.7,0,0,1-2.241-.8l.052-.051c.014-.014.032-.037.022-.059-.134-.3,2.67-1.544,2.839-1.61a10.219,10.219,0,0,1,3.287-.618,8.856,8.856,0,0,1,3.585.643c1.246.483,1.778,1.473,2.507,2.454A22.446,22.446,0,0,1,977.547,212.513Z"/>
      <path d="M1024.378,137.307c-1.582-2.653-5.852-3.62-8.531-2.229-1.59.827-3.729,2.441-4.444,4.129a.248.248,0,0,0,.123.325,1.71,1.71,0,0,0,.309.128c.11.023.356-.119.331-.225a.824.824,0,0,0,.191-.167,8.215,8.215,0,0,1,.8-.687c.728-.591,1.483-1.147,2.244-1.695a3.956,3.956,0,0,1,3.381-.793c1.508.332,2.483,1.648,3.828,2.266C1023.111,138.59,1024.865,138.122,1024.378,137.307Z"/>
      <path d="M981.171,153.126c.448-3.268-.424-6.87-3.388-8.667-6.036-3.661-14.231,2.637-17.87,7.172a23.1,23.1,0,0,0-3.689,6.8A12.829,12.829,0,0,0,957.456,169c-.32-.2-.631-.371-.913-.514-1.518-.761-3.332-1.708-5.109-1.349-.067.013-.262.157-.118.216a3.781,3.781,0,0,0,.982.178,9.5,9.5,0,0,1,3.3.954,8.858,8.858,0,0,1,4.552,5.265c.181.524,1.2.086,1.118-.422a4.015,4.015,0,0,0-.785-1.685,7.312,7.312,0,0,0,4.637.352c3.98-.881,7.413-3.939,10.081-6.853A22.606,22.606,0,0,0,981.171,153.126Z"/>
      <path d="M976.089,162.372a22.428,22.428,0,0,1-10.14,8.488c-4.747,1.784-8.1-2.01-9.007-6.341-1.4-6.682,3.739-13.47,9-16.918,2.834-1.856,6.719-3.3,10.043-1.987,4.934,1.946,3.665,8.177,2.564,12.224A25.684,25.684,0,0,1,976.089,162.372Z" fill="#e2e2e2"/>
      <path d="M1034.856,184.385c-2.918-3.973-9.132-4.872-13.709-4.6a17.994,17.994,0,0,0-5.514,1.242,24.534,24.534,0,0,0,5.363-7.847c2.49-5.671,4.565-14.319.925-19.983q-.1-.156-.216-.312a10.561,10.561,0,0,0-5.478-3.546c-3.43-.743-7.169.63-10.085,2.349a26.9,26.9,0,0,0-12.123,17.973c-1.229,7.214,2.424,15.057,10.418,15.674a13.339,13.339,0,0,0,5.51-.72,13.327,13.327,0,0,0-2.869,3.937c-.1.213.322.151.4,0a13.832,13.832,0,0,1,4.013-4.594,15.692,15.692,0,0,0,2.478-1.524,18.834,18.834,0,0,1,8.105-1.985c4.007-.054,9.313,1.1,11.779,4.539C1034.144,185.393,1035.206,184.861,1034.856,184.385Z"/>
      <path d="M996.025,177.382c-3.058-7.32.882-15.945,5.876-21.364a18.733,18.733,0,0,1,10.078-5.88,7.523,7.523,0,0,1,8.537,3.928,27.921,27.921,0,0,1,1,13.013,25.854,25.854,0,0,1-5.627,12.232,13.019,13.019,0,0,1-10.532,4.93A10.7,10.7,0,0,1,996.025,177.382Z" fill="#e2e2e2"/>
      <path d="M1013.9,193.35a25.064,25.064,0,0,1-2.515-1.1,6.542,6.542,0,0,1-.739-.559c0-.106-.091-.172-.217-.192-.624-.566-1.244-1.293-.9-1.643.182-.188-.1-.305-.257-.192-.886.633-.454,1.541.086,2.292a64.118,64.118,0,0,1-5.711,3.265,31.665,31.665,0,0,1-7.367,2.159,48.471,48.471,0,0,1-17.7-.463,37.877,37.877,0,0,1-16.306-7.357,20.105,20.105,0,0,1-5.106-5.813,5.756,5.756,0,0,1-.795-4.21c.33-1.368,3.83-4.345,4.879-1.9.064.149.392.048.378-.106-.165-1.953-2.4-1.455-3.653-.77-2.514,1.375-3.208,3.816-2.162,6.435,1.629,4.081,5.362,7.256,9.38,9.591,2.7,3.269,2.948,7.908,3.967,11.92a12.767,12.767,0,0,0,2.78,5.555c1.823,2.008,4.728,2.854,7.321,3.223a25.225,25.225,0,0,0,16.513-3.911,24.661,24.661,0,0,0,6.28-6.11c2.009-2.664,4.389-5.634,5.437-8.834a.6.6,0,0,0,.022-.348,14.637,14.637,0,0,0,2.354-1.707,6.526,6.526,0,0,0,3.363,1.511C1013.562,194.145,1014.471,193.6,1013.9,193.35Z"/>
      <path d="M993.073,198.639a37.752,37.752,0,0,0,9.4-2.057c.921-.334,1.9-.72,2.866-1.165a34.744,34.744,0,0,1-1.87,3.365,28.558,28.558,0,0,1-6.418,2.242,35.023,35.023,0,0,1-8.038-.038,48.657,48.657,0,0,1-7.875-1.072,21.061,21.061,0,0,1-4.047-1.544,8.043,8.043,0,0,1-1.886-1.36A49.314,49.314,0,0,0,993.073,198.639Z" fill="#e2e2e2"/>
      <path d="M995.554,208.777a19.041,19.041,0,0,1-6.736,3.382l0-.018a5,5,0,0,0-3.391-3.157,9.711,9.711,0,0,0-4.256-.478,12.071,12.071,0,0,0-4.312,1.257,5.929,5.929,0,0,0-2.188,1.6c-3.207-1.905-4.615-5.362-5.483-9.243-.681-3.044-1.222-6.277-3.022-8.791a45.067,45.067,0,0,0,4.949,2.3c1.027.406,2.078.768,3.143,1.1.563,1.583,2.491,2.451,3.916,3.06a28.763,28.763,0,0,0,8.852,1.821,52.737,52.737,0,0,0,9.281.307,21.283,21.283,0,0,0,6.414-1.931c-.594.915-1.2,1.818-1.8,2.719A26.443,26.443,0,0,1,995.554,208.777Z" fill="url(#k)"/>
      <path d="M974.842,151.014a1.247,1.247,0,0,0-.17-.126c-.022-.015-.041-.032-.063-.046-.1-.107-.2-.212-.307-.313-1.5-1.461-3.9-1.339-5.676-.442-4.052,2.044-8.046,7.566-7.211,12.28a5.08,5.08,0,0,0,4.939,3.867c2.4.094,4.7-1.512,6.338-3.1C975.43,160.5,978.65,153.894,974.842,151.014Z"/>
      <path d="M973.161,151.188c.278.353.548.677.794.992a5.506,5.506,0,0,1,.532,1.757,3.227,3.227,0,0,1-.709,1.853c-.9,1.246-2.445,1.589-3.185.007a3.42,3.42,0,0,1,1.283-3.981A2.8,2.8,0,0,1,973.161,151.188Z" fill="#fff"/>
      <path d="M973.249,160.738c-2.049,3.225-7.514,6.92-10.213,2.278-1.8-3.1.957-7.391,2.926-9.706,1.5-1.766,3.618-3.35,6.052-2.942a2.829,2.829,0,0,1,.868.37,4.322,4.322,0,0,0-.845.306,4.439,4.439,0,0,0-2.492,5.148c.707,2.195,3.129,1.788,4.566.65A4.773,4.773,0,0,0,975.2,155.5,10.988,10.988,0,0,1,973.249,160.738Z"/>
      <path d="M1017.231,161.078c-.15-2.624-1.355-3.748-2.849-3.918a9.922,9.922,0,0,0-1.281-.548c-2.74-.929-5.3.461-7.145,2.452a18.842,18.842,0,0,0-4.879,9.724c-.518,3.625,1.458,8.366,5.531,8.622,3.465.218,6.6-3.391,8.121-6.057A19.211,19.211,0,0,0,1017.231,161.078Z"/>
      <path d="M1012.674,157.847a3.519,3.519,0,0,1-.371,6.74,2.544,2.544,0,0,1-2.953-1.669c-.613-1.748.852-3.6,2.183-4.5A4.533,4.533,0,0,1,1012.674,157.847Z" fill="#fff"/>
      <path d="M1012.485,173.165a10.172,10.172,0,0,1-4.19,3.128c-2.7,1.1-4.674-1.178-5.757-3.331-1.75-3.477-.171-7.527,1.682-10.59,1.526-2.522,3.621-5.357,6.849-5.439a4.014,4.014,0,0,1,.737.062c-.214.219-.264.481.109.6-2.736,1.172-5.135,4.338-3.248,6.7,1.638,2.047,4.844,1.361,6.453-.337a4.579,4.579,0,0,0,.937-1.445,11.6,11.6,0,0,1-.017,1.512A17.239,17.239,0,0,1,1012.485,173.165Z"/>
      <path d="M981.236,218.677c-4.1-.091-8.293-1.336-9.139-5.821-.043-.229-.511-.047-.52.145-.237,4.858,5.8,6.446,9.62,5.862C981.306,218.847,981.4,218.681,981.236,218.677Z"/>
      <path d="M976.06,136.84c-1.235-2.2-4.149-1.812-6.128-1.028-1.719.681-4.384,2.02-4.8,4.014-.037.177.2.248.328.253l.186.007a.5.5,0,0,0,.51-.366l.127-.076c.149-.089.082-.242-.082-.218-.061.009-.106.018-.14.026a.808.808,0,0,0,.346-.288,6.8,6.8,0,0,1,2.442-1.761,8.3,8.3,0,0,1,3.163-1.086c1.155-.1,1.952.731,2.9,1.206C975.247,137.689,976.357,137.368,976.06,136.84Z"/>
      <path d="M986.445,210.72a5.98,5.98,0,0,0-5.043-1.274c-1.993-.037-4.53,1.042-3.566,2.371.73,1.009,2.972.814,4.02.778a7.97,7.97,0,0,0,4.36-1.033C986.479,211.37,986.723,210.992,986.445,210.72Z" fill="#ff5a5a"/>
    </g>
  </g>
</svg>
